<svg width="41" height="41" viewBox="0 0 41 41" fill="none" xmlns="http://www.w3.org/2000/svg">
<path fill-rule="evenodd" clip-rule="evenodd" d="M3.35938 11.7604C3.35938 7.12116 7.12018 3.36035 11.7594 3.36035H28.5594C33.1986 3.36035 36.9594 7.12116 36.9594 11.7604V21.8404C36.9594 26.4795 33.1986 30.2404 28.5594 30.2404H11.7594C7.12018 30.2404 3.35938 26.4795 3.35938 21.8404V11.7604ZM11.7594 6.72035C8.97586 6.72035 6.71938 8.97684 6.71938 11.7604V21.8404C6.71938 24.6239 8.97586 26.8804 11.7594 26.8804H28.5594C31.3429 26.8804 33.5994 24.6239 33.5994 21.8404V11.7604C33.5994 8.97684 31.3429 6.72035 28.5594 6.72035H11.7594ZM3.35938 35.2804C3.35938 34.3525 4.11154 33.6004 5.03938 33.6004H35.2794C36.2072 33.6004 36.9594 34.3525 36.9594 35.2804C36.9594 36.2082 36.2072 36.9604 35.2794 36.9604H5.03938C4.11154 36.9604 3.35938 36.2082 3.35938 35.2804Z" fill="#3C56B1"/>
</svg>
