<svg width="41" height="41" viewBox="0 0 41 41" fill="none" xmlns="http://www.w3.org/2000/svg">
<path fill-rule="evenodd" clip-rule="evenodd" d="M3.35999 11.7601C3.35999 7.12092 7.12079 3.36011 11.76 3.36011H28.56C33.1992 3.36011 36.96 7.12092 36.96 11.7601V21.8401C36.96 26.4793 33.1992 30.2401 28.56 30.2401H11.76C7.12079 30.2401 3.35999 26.4793 3.35999 21.8401V11.7601ZM11.76 6.72011C8.97647 6.72011 6.71999 8.97659 6.71999 11.7601V21.8401C6.71999 24.6236 8.97647 26.8801 11.76 26.8801H28.56C31.3435 26.8801 33.6 24.6236 33.6 21.8401V11.7601C33.6 8.97659 31.3435 6.72011 28.56 6.72011H11.76ZM3.35999 35.2801C3.35999 34.3523 4.11215 33.6001 5.03999 33.6001H35.28C36.2078 33.6001 36.96 34.3523 36.96 35.2801C36.96 36.2079 36.2078 36.9601 35.28 36.9601H5.03999C4.11215 36.9601 3.35999 36.2079 3.35999 35.2801Z" fill="#BFC6FF"/>
</svg>
