<svg width="41" height="41" viewBox="0 0 41 41" fill="none" xmlns="http://www.w3.org/2000/svg">
<path fill-rule="evenodd" clip-rule="evenodd" d="M6.7207 11.7594C6.7207 7.12018 10.4815 3.35938 15.1207 3.35938H25.2007C29.8399 3.35938 33.6007 7.12018 33.6007 11.7594V28.5594C33.6007 33.1986 29.8399 36.9594 25.2007 36.9594H15.1207C10.4815 36.9594 6.7207 33.1986 6.7207 28.5594V11.7594ZM15.1207 6.71937C12.3372 6.71937 10.0807 8.97586 10.0807 11.7594V28.5594C10.0807 31.3429 12.3372 33.5994 15.1207 33.5994H25.2007C27.9842 33.5994 30.2407 31.3429 30.2407 28.5594V11.7594C30.2407 8.97586 27.9842 6.71937 25.2007 6.71937H15.1207ZM13.4407 28.5594C13.4407 27.6315 14.1929 26.8794 15.1207 26.8794H25.2007C26.1285 26.8794 26.8807 27.6315 26.8807 28.5594C26.8807 29.4872 26.1285 30.2394 25.2007 30.2394H15.1207C14.1929 30.2394 13.4407 29.4872 13.4407 28.5594Z" fill="#BFC6FF"/>
</svg>
