<svg width="41" height="41" viewBox="0 0 41 41" fill="none" xmlns="http://www.w3.org/2000/svg">
<path fill-rule="evenodd" clip-rule="evenodd" d="M6.7207 11.7604C6.7207 7.12116 10.4815 3.36035 15.1207 3.36035H25.2007C29.8399 3.36035 33.6007 7.12116 33.6007 11.7604V28.5604C33.6007 33.1995 29.8399 36.9604 25.2007 36.9604H15.1207C10.4815 36.9604 6.7207 33.1995 6.7207 28.5604V11.7604ZM15.1207 6.72035C12.3372 6.72035 10.0807 8.97684 10.0807 11.7604V28.5604C10.0807 31.3439 12.3372 33.6004 15.1207 33.6004H25.2007C27.9842 33.6004 30.2407 31.3439 30.2407 28.5604V11.7604C30.2407 8.97684 27.9842 6.72035 25.2007 6.72035H15.1207ZM13.4407 28.5604C13.4407 27.6325 14.1929 26.8804 15.1207 26.8804H25.2007C26.1285 26.8804 26.8807 27.6325 26.8807 28.5604C26.8807 29.4882 26.1285 30.2404 25.2007 30.2404H15.1207C14.1929 30.2404 13.4407 29.4882 13.4407 28.5604Z" fill="#3C56B1"/>
</svg>
