<svg width="41" height="41" viewBox="0 0 41 41" fill="none" xmlns="http://www.w3.org/2000/svg">
<path fill-rule="evenodd" clip-rule="evenodd" d="M3.35938 11.7594C3.35938 7.12018 7.12018 3.35938 11.7594 3.35938H28.5594C33.1986 3.35938 36.9594 7.12018 36.9594 11.7594V28.5594C36.9594 33.1986 33.1986 36.9594 28.5594 36.9594H11.7594C7.12018 36.9594 3.35938 33.1986 3.35938 28.5594V11.7594ZM11.7594 6.71937C8.97586 6.71937 6.71937 8.97586 6.71937 11.7594V28.5594C6.71937 31.3429 8.97586 33.5994 11.7594 33.5994H28.5594C31.3429 33.5994 33.5994 31.3429 33.5994 28.5594V11.7594C33.5994 8.97586 31.3429 6.71937 28.5594 6.71937H11.7594ZM13.4394 11.7594C13.4394 10.8315 14.1915 10.0794 15.1194 10.0794H25.1994C26.1272 10.0794 26.8794 10.8315 26.8794 11.7594C26.8794 12.6872 26.1272 13.4394 25.1994 13.4394H15.1194C14.1915 13.4394 13.4394 12.6872 13.4394 11.7594Z" fill="#BFC6FF"/>
</svg>
