<svg width="41" height="41" viewBox="0 0 41 41" fill="none" xmlns="http://www.w3.org/2000/svg">
<path fill-rule="evenodd" clip-rule="evenodd" d="M3.35938 11.7604C3.35938 7.12116 7.12018 3.36035 11.7594 3.36035H28.5594C33.1986 3.36035 36.9594 7.12116 36.9594 11.7604V28.5604C36.9594 33.1995 33.1986 36.9604 28.5594 36.9604H11.7594C7.12018 36.9604 3.35938 33.1995 3.35938 28.5604V11.7604ZM11.7594 6.72035C8.97586 6.72035 6.71937 8.97684 6.71937 11.7604V28.5604C6.71937 31.3439 8.97586 33.6004 11.7594 33.6004H28.5594C31.3429 33.6004 33.5994 31.3439 33.5994 28.5604V11.7604C33.5994 8.97684 31.3429 6.72035 28.5594 6.72035H11.7594ZM13.4394 11.7604C13.4394 10.8325 14.1915 10.0804 15.1194 10.0804H25.1994C26.1272 10.0804 26.8794 10.8325 26.8794 11.7604C26.8794 12.6882 26.1272 13.4404 25.1994 13.4404H15.1194C14.1915 13.4404 13.4394 12.6882 13.4394 11.7604Z" fill="#3C56B1"/>
</svg>
